<?xml version="1.0" encoding="UTF-8" standalone="no"?>
<!-- Created with Inkscape (http://www.inkscape.org/) -->

<svg
   version="1.1"
   id="svg32"
   width="10em"
   height="26.820986mm"
   viewBox="0 0 1599.9689 967.71185"
   sodipodi:docname="take3.png"
   xmlns:inkscape="http://www.inkscape.org/namespaces/inkscape"
   xmlns:sodipodi="http://sodipodi.sourceforge.net/DTD/sodipodi-0.dtd"
   xmlns="http://www.w3.org/2000/svg"
   xmlns:svg="http://www.w3.org/2000/svg">
  <defs
     id="defs36" />
  <sodipodi:namedview
     id="namedview34"
     pagecolor="#ffffff"
     bordercolor="#111111"
     borderopacity="1"
     inkscape:showpageshadow="0"
     inkscape:pageopacity="0"
     inkscape:pagecheckerboard="1"
     inkscape:deskcolor="#d1d1d1"
     showgrid="false" />
  <g
     inkscape:groupmode="layer"
     inkscape:label="Image"
     id="g38">
    <path
       style="fill:white"
       d="m 691.97934,965.35191 c -8.57207,-3.0096 -16.13039,-7.1796 -21.74955,-11.9994 -2.6626,-2.2839 -2.70476,-2.57127 -0.75052,-5.11631 2.57769,-3.35697 6.06778,-8.87714 6.76714,-10.70339 0.72325,-1.88862 5.19569,-2.42829 6.23173,-0.75194 0.90858,1.4701 10.00834,5.59387 18.00708,8.16031 14.82882,4.75792 29.95913,1.80343 31.78759,-6.20715 1.51454,-6.63524 -2.56157,-11.64391 -11.29347,-13.87729 -7.97044,-2.03862 -22.62649,-5.10501 -24.32813,-5.09003 -3.22483,0.0284 -16.18059,-6.82595 -19.86369,-10.50905 -4.44543,-4.44543 -7.80818,-13.00271 -7.80818,-19.86966 0,-7.60842 3.40565,-16.77156 7.82152,-21.04434 13.58859,-13.14827 41.74135,-15.34681 62.07614,-4.84772 13.0032,6.7137 13.19693,6.95986 9.4375,11.99194 -1.55934,2.08721 -3.17266,3.94493 -3.58516,4.12826 -0.4125,0.18334 -0.76422,0.85834 -0.7816,1.5 -0.0174,0.64167 -1.17173,2.46339 -2.56523,4.04826 l -2.53362,2.8816 -8.18478,-4.08941 c -18.76588,-9.3761 -38.68477,-7.40907 -38.68477,3.8202 0,6.51255 5.96612,9.45275 28.5,14.04525 19.3195,3.9374 28.94534,10.11461 33.04207,21.20415 4.95124,13.40266 0.0799,31.12402 -10.46792,38.08092 -8.17914,5.3947 -14.0002,6.6815 -29.86166,6.6013 -12.63071,-0.064 -15.63222,-0.3974 -21.21249,-2.3565 z m 111,1.4956 c -11.6729,-3.5645 -22.47019,-12.4358 -27.5472,-22.63364 l -2.9528,-5.93106 -0.29307,-39.75 -0.29307,-39.75 h 11.04307 11.04307 v 34.05718 c 0,21.52901 0.40611,35.66997 1.10398,38.44148 1.39811,5.5524 6.34909,11.37426 12.12664,14.25971 9.46644,4.72776 23.08872,1.77382 29.39501,-6.3742 4.81329,-6.21899 5.37437,-11.17386 5.37437,-47.46046 v -32.92371 h 11 11 v 36.97717 36.97717 l -2.53364,6.73126 c -1.3935,3.70219 -3.1935,7.4604 -4,8.35157 -0.8065,0.89117 -1.46636,2.05368 -1.46636,2.58336 0,0.52968 -1.9125,2.78687 -4.25,5.01587 -10.31146,9.8331 -17.41279,12.3946 -34.03751,12.2776 -6.71687,-0.047 -13.33749,-0.4294 -14.71249,-0.8493 z m 273.49996,-1.4468 c -7.4488,-2.5315 -12.1016,-4.988 -19.75,-10.4274 -5.0809,-3.61347 -5.4609,-4.30928 -3.4778,-6.36907 0.6998,-0.72679 2.9738,-3.90893 5.0535,-7.07143 2.8531,-4.33861 4.3672,-5.75 6.1687,-5.75 1.3132,0 2.671,0.45856 3.0174,1.01902 2.0394,3.29985 23.9235,10.92995 31.4882,10.97868 5.6533,0.0364 15.6439,-3.92082 16.9091,-6.6976 1.2085,-2.65222 1.4283,-7.25736 0.4661,-9.7647 -1.417,-3.69259 -14.2527,-7.99208 -34.5218,-11.56346 -12.0192,-2.11776 -23.7849,-11.00311 -27.1083,-20.47194 -5.0232,-14.31147 1.1028,-29.91952 14.5289,-37.01734 5.8364,-3.08548 17.2062,-5.48495 25.9234,-5.47085 11.2201,0.0181 29.2728,5.23501 32.7929,9.47655 0.69,0.8314 1.8047,1.51164 2.4772,1.51164 0.6724,0 1.9812,0.83833 2.9085,1.86296 1.5913,1.75838 1.5339,2.0952 -1.0227,6 -1.4897,2.27537 -3.0786,4.13704 -3.5309,4.13704 -0.4523,0 -0.8386,0.5625 -0.8584,1.25 -0.02,0.6875 -1.1054,2.55809 -2.4126,4.15688 l -2.3767,2.90687 -7.8374,-4.06207 c -17.9611,-9.30921 -39.3373,-7.55099 -39.3373,3.23554 0,6.52212 7.0642,10.04147 30.0261,14.95882 14.0843,3.01619 19.1137,5.17295 25.069,10.75041 6.225,5.82996 8.9168,12.5069 8.8647,21.98893 -0.072,13.13566 -6.981,24.05442 -18.6683,29.50322 -5.4118,2.523 -6.8406,2.72 -21.7915,3.0042 -14.6786,0.2789 -16.5781,0.1076 -23,-2.0749 z M 467.97934,912.70557 v -54.07723 l 30.25,0.36317 30.25,0.36318 5.42208,2.65632 c 13.10664,6.42106 19.96772,17.9907 20.02752,33.7718 0.025,6.59013 -2.29197,17.00692 -4.62132,20.77713 -2.27477,3.68186 -9.49477,11.21524 -10.78649,11.25467 -0.57298,0.0175 -1.85887,0.65123 -2.85753,1.40831 -1.57881,1.1969 -1.64405,1.68206 -0.5,3.7182 0.72366,1.28793 1.59173,2.56669 1.92906,2.84169 0.70721,0.57654 13.67573,17.8838 17.09157,22.8097 1.26231,1.8204 2.85761,3.9257 3.54511,4.6786 2.79489,3.0606 1.3141,3.5117 -11.52776,3.5117 -14.73893,0 -12.26319,1.4974 -23.37093,-14.1355 -4.0504,-5.70047 -8.93643,-12.48445 -10.85784,-15.0755 l -3.49347,-4.711 -9.25,-0.039 -9.25,-0.039 v 17 17 h -11 -11 z m 57.23232,-3.1508 c 9.45415,-7.21103 9.03676,-20.26502 -0.89788,-28.08134 -2.54544,-2.00268 -4.13772,-2.22106 -18.55938,-2.5454 l -15.77506,-0.35478 v 17.22426 17.22425 l 15.87305,-0.40396 c 15.34844,-0.3906 15.98828,-0.49184 19.35927,-3.06303 z m 48.43435,56.56134 c -0.36667,-0.3666 -0.66667,-24.66663 -0.66667,-53.99997 v -53.33333 h 40 40 v 10 10 h -28.5 -28.5 v 11.98312 11.98312 l 25.75,0.26688 25.75,0.26688 v 9.5 9.5 l -25.75,0.26688 -25.75,0.26688 v 11.48312 11.48312 h 28.5 28.5 v 10.5 10.5 h -39.33333 c -21.63334,0 -39.63334,-0.3 -40,-0.6667 z m 314,0 c -0.36667,-0.3666 -0.66667,-24.66663 -0.66667,-53.99997 v -53.33333 h 11 11 v 43.5 43.5 h 28 28 v 10.5 10.5 h -38.33333 c -21.08334,0 -38.63334,-0.3 -39,-0.6667 z m 101.0309,0.031 c -0.38366,-0.3836 -0.69757,-20.19753 -0.69757,-44.03087 v -43.33343 h -14.41667 c -8.49254,0 -14.55364,-0.40154 -14.75,-0.97718 -0.18333,-0.53744 -0.18889,-5.03744 -0.0124,-10 l 0.32101,-9.02282 h 40.92902 40.929 v 10 10 h -14.4895 -14.4895 l -0.2605,43.75 -0.2605,43.75 -11.0524,0.2809 c -6.07883,0.1545 -11.36633,-0.033 -11.74999,-0.4167 z M 535.97934,809.78281 v -4 h 264 263.99996 v 4 4 h -263.99996 -264 z M 52.479342,763.20523 c -15.57001,-3.63252 -21.69855,-6.18336 -29.5,-12.2786 -9.8189,-7.67145 -15.40653,-15.04226 -20.40381,-26.91528 -2.40432004,-5.71241 -2.59457004,-7.26061 -2.57423004,-20.94841 0.0187,-12.55875 0.31925,-15.4353 2.00000004,-19.13933 1.08792,-2.39757 1.97804,-4.73017 1.97804,-5.18356 0,-1.38879 6.2433,-10.95724 7.14948,-10.95724 0.46778,0 0.85052,-0.47143 0.85052,-1.04762 0,-1.36497 9.58741,-10.95238 10.95238,-10.95238 0.57619,0 1.04762,-0.34487 1.04762,-0.76637 0,-1.32136 10.22176,-6.87417 16.75398,-9.10133 8.82773,-3.00982 26.62529,-3.03279 35.52756,-0.0458 14.76431,4.95379 24.409588,12.33782 33.377008,25.55205 2.95028,4.34748 2.93174,4.62185 -0.40855,6.04462 -8.15934,3.47541 -11.183558,4.7142 -15.457188,6.33163 l -4.70718,1.78152 -6.80655,-6.64814 c -10.77742,-10.52659 -21.87612,-13.47248 -33.99157,-9.02228 -3.18313,1.16921 -6.71651,2.96921 -7.85196,4 -1.13545,1.03078 -2.48545,1.88099 -3,1.88934 -1.97253,0.032 -8.52141,10.52296 -10.43367,16.71414 -2.45649,7.95319 -2.5154,12.92848 -0.24797,20.94067 4.36404,15.42078 18.70953,26.16655 33.53405,25.11933 8.51305,-0.60137 14.97775,-3.93518 22.52278,-11.6149 l 6.31074,-6.4234 4.18926,1.73092 c 2.30409,0.95201 6.21426,2.53304 8.689258,3.5134 2.475,0.98036 5.7375,2.27282 7.25,2.87213 3.27927,1.29936 3.38431,2.05641 0.75,5.40539 -1.1,1.39842 -2,2.8355 -2,3.1935 0,1.56095 -6.7264,8.80394 -11.882428,12.79499 -6.37239,4.9326 -14.07207,8.80797 -22.11757,11.13213 -5.76306,1.66481 -18.079,2.82705 -21.5,2.02893 z m 117.499998,-0.02 c -9.83074,-1.68646 -22.30864,-6.16932 -26.38166,-9.478 -0.61509,-0.49965 -3.69536,-2.95323 -6.84504,-5.4524 -12.07929,-9.58447 -19.53438,-25.06689 -20.49771,-42.56877 -0.44542,-8.09225 -0.16827,-10.83579 1.76778,-17.5 2.82479,-9.72336 6.83114,-17.98688 10.75909,-22.19177 1.63467,-1.74992 3.23372,-3.86337 3.55345,-4.69656 0.31973,-0.8332 0.99785,-1.5149 1.50695,-1.5149 0.5091,0 2.32727,-1.30933 4.04039,-2.90963 3.91625,-3.65832 11.87638,-8.15091 19.38426,-10.94021 4.82021,-1.79081 7.94776,-2.15018 18.71249,-2.15018 10.76473,0 13.89228,0.35937 18.71249,2.15016 19.34416,7.18667 32.13248,20.60438 38.93367,40.84984 2.59159,7.7145 2.55977,24.28961 -0.0624,32.5 -4.14963,12.99315 -10.55659,22.9824 -18.88847,29.44947 -2.85742,2.21789 -5.64531,4.38927 -6.19531,4.82528 -7.52343,5.96428 -28.81611,11.28891 -38.5,9.62765 z m 15.57186,-26.06529 c 2.71048,-0.91459 6.50314,-2.79873 8.42814,-4.18699 3.94078,-2.84198 9.90539,-9.17115 9.96245,-10.57138 0.0207,-0.50669 0.67456,-1.63169 1.45312,-2.5 1.68181,-1.87569 4.58443,-12.59126 4.58443,-16.92431 0,-8.49533 -5.62697,-20.81847 -12.16682,-26.6455 -8.85095,-7.88624 -22.07113,-10.53369 -32.71795,-6.55204 -10.11487,3.78271 -18.85303,13.62788 -21.74984,24.50526 -2.7275,10.24162 -0.93417,20.03644 5.35414,29.24321 8.65412,12.6706 23.46475,18.14907 36.85233,13.63173 z m 64.67002,-34.08713 0.25812,-57.75 h 12.5 12.5 l 0.25999,46.25 0.25998,46.25 h 29.49002 29.49001 v 11.5 11.5 h -42.50812 -42.50813 z m 93.75812,-0.14421 v -58.10579 h 25.54216 c 27.98718,0 36.40731,1.03156 46.45784,5.69159 8.55163,3.96506 16.24596,10.48187 21.08985,17.86234 5.03304,7.66867 5.71539,9.12258 7.97609,16.99506 4.05968,14.13711 2.34006,36.07766 -3.52976,45.03614 -0.8449,1.28948 -1.53618,2.80519 -1.53618,3.36826 0,2.29966 -11.33686,14.58089 -16.45178,17.82221 -2.17348,1.37734 -7.12348,3.86408 -11,5.52611 l -7.04822,3.02185 -30.75,0.44401 -30.75,0.44402 z m 58.22474,32.95468 c 5.72129,-1.75188 11.81603,-6.98676 15.20574,-13.06047 3.0204,-5.41199 3.06931,-5.72403 3.05629,-19.5 -0.0127,-13.49125 -0.11711,-14.19199 -2.87212,-19.28312 -6.13622,-11.33947 -15.71005,-15.21688 -37.57249,-15.21688 h -11.04216 v 34.62375 34.62375 l 14.75,-0.52325 c 8.1125,-0.28778 16.42613,-1.03648 18.47474,-1.66378 z m 84.6263,22.18953 c -5.44223,-13.61234 -9.08358,-23.29694 -12.87779,-34.25 -1.61945,-4.675 -4.12294,-11.65 -5.5633,-15.5 -1.44037,-3.85 -3.44029,-9.25 -4.44427,-12 -1.00398,-2.75 -2.78853,-7.475 -3.96568,-10.5 -5.47345,-14.06553 -13.97226,-38.21759 -13.98754,-39.75 -0.009,-0.93833 3.3233,-1.25 13.36622,-1.25 h 13.37868 l 1.12544,2.75 c 0.61899,1.5125 1.75187,5 2.51751,7.75 0.76564,2.75 2.59163,8.15 4.05774,12 1.46611,3.85 3.01643,8.35 3.44516,10 0.42873,1.65 1.52589,4.44015 2.43815,6.20034 0.91225,1.76019 1.65864,3.81316 1.65864,4.56217 0,0.74901 0.9,3.22462 2,5.50135 1.1,2.27674 2,4.80971 2,5.62882 0,3.87251 1.97569,1.83067 5.01617,-5.1841 3.12924,-7.21958 9.94097,-21.76343 19.18326,-40.95858 2.69303,-5.5931 4.52589,-8.25 5.69125,-8.25 1.19487,0 3.01549,2.82014 5.9716,9.25 4.84596,10.54048 6.76309,14.60965 14.56062,30.90531 3.0674,6.41042 5.59141,12.03542 5.6089,12.5 0.0175,0.46458 0.66289,1.67771 1.43422,2.69585 1.30053,1.71668 1.48101,1.55926 2.48434,-2.1668 0.59506,-2.20989 1.74689,-5.29291 2.55962,-6.85117 0.81274,-1.55825 1.48047,-3.40059 1.48386,-4.09409 0.003,-0.69349 0.83165,-3.16849 1.84058,-5.5 1.00893,-2.3315 2.40237,-5.8141 3.09653,-7.7391 0.69415,-1.925 2.36817,-6.425 3.72004,-10 1.35187,-3.575 2.93308,-8.075 3.5138,-10 0.58072,-1.925 1.69277,-4.7375 2.47121,-6.25 l 1.41536,-2.75 h 12.80765 c 7.04421,0 13.07011,0.26245 13.39089,0.58323 0.32077,0.32078 -0.55053,3.58328 -1.93625,7.25 -1.38571,3.66672 -3.18267,8.46677 -3.99324,10.66677 -0.81057,2.2 -2.04707,5.35 -2.74778,7 -0.7007,1.65 -2.19029,5.475 -3.31019,8.5 -1.1199,3.025 -3.038,8.2 -4.26244,11.5 -2.09688,5.65132 -2.96094,8.03529 -8.06441,22.25 -1.13542,3.1625 -2.93542,7.67454 -4,10.02675 -1.06457,2.35221 -1.93559,5.07471 -1.93559,6.05 0,0.97529 -0.40597,2.20075 -0.90215,2.72325 -0.49618,0.5225 -1.60091,2.975 -2.45495,5.45 -0.85405,2.475 -2.95831,8.1 -4.67615,12.5 -1.71783,4.4 -3.36559,8.7875 -3.66167,9.75 -0.35115,1.14148 -1.54842,1.75 -3.44315,1.75 -2.24133,0 -3.15061,-0.62812 -3.98096,-2.75 -1.6168,-4.1316 -7.31574,-16.38218 -18.74387,-40.29236 -3.29712,-6.8983 -6.30058,-13.7608 -6.67434,-15.25 -0.82697,-3.29489 -2.09368,-3.48788 -3.00365,-0.45764 -0.37161,1.2375 -3.0537,7.2 -5.9602,13.25 -7.9447,16.53724 -12.88686,27.17543 -16.49214,35.5 -3.9642,9.1533 -4.61226,10 -7.65397,10 -1.68749,0 -2.72945,-0.81827 -3.50176,-2.75 z m 119.39084,-55 0.25812,-57.75 42.75,-0.26074 42.75,-0.26073 v 12.01073 12.01074 h -30 -30 v 11.5 11.5 h 27 27 v 12 12 h -27 -27 v 10.98534 10.98533 l 30.08033,0.26467 30.08033,0.26466 -0.0403,10.25 c -0.0222,5.6375 -0.0583,10.7 -0.0803,11.25 -0.026,0.65055 -15.06937,1 -43.04812,1 h -43.00813 l 0.25813,-57.75 z m 103.59145,56.75187 c -0.18333,-0.54897 -0.21354,-26.66236 -0.0671,-58.02975 l 0.2662,-57.03163 12.7338,0.27975 12.73377,0.27976 0.25999,46.25 0.25998,46.25 h 28.99002 28.99001 v 11.5 11.5 h -41.91667 c -27.00271,0 -42.03526,-0.35513 -42.25,-0.99813 z m 93.16667,-56.99102 v -58.01085 h 12.5 12.5 v 46.48512 46.48512 l 29.75,0.26488 29.75,0.26488 v 11 11 l -42.25,0.26085 -42.25,0.26086 z m 145,0.009 v -58.14892 l 31.25,0.33373 c 29.56706,0.31575 31.54896,0.45372 36.80146,2.56188 9.6007,3.85334 15.2255,11.62822 16.8081,23.233 1.129,8.27795 -0.3491,17.67341 -3.2918,20.92507 -0.8623,0.95283 -1.5678,2.05606 -1.5678,2.45164 0,0.39557 -1.198,1.74967 -2.6621,3.00911 l -2.6622,2.28988 6.0196,6.01956 c 6.9253,6.92534 9.3047,12.43354 9.3047,21.54006 0,14.79161 -5.8813,24.79685 -18,30.62129 l -5.5,2.64339 -33.24996,0.33461 -33.25,0.33462 z m 56.50386,33.8421 c 4.4607,-1.61253 7.4961,-6.4717 7.4961,-11.99952 0,-8.50594 -5.3474,-10.86243 -24.64918,-10.86243 h -13.35078 v 12 12 h 13.679 c 7.71198,0 15.05126,-0.49624 16.82486,-1.13759 z m -2.5437,-47.49795 c 3.5791,-2.11423 6.0398,-6.33863 6.0398,-10.36875 0,-2.301 -0.9519,-4.14761 -3.4,-6.59571 l -3.4,-3.4 h -13.59996 -13.6 v 11 11 h 12.59571 c 9.86487,0 13.19599,-0.3546 15.36445,-1.63554 z m 37.5131,68.41275 c 1.8245,-4.28926 17.6026,-35.18833 27.3329,-53.52721 0.6566,-1.2375 1.6438,-3.15 2.1938,-4.25 0.55,-1.1 1.4108,-2.7875 1.9128,-3.75 0.5021,-0.9625 2.2262,-4.45 3.8315,-7.75 2.7779,-5.71067 3.7284,-7.59315 6.4379,-12.75 0.6501,-1.2375 4.4207,-8.55 8.3789,-16.25 6.0741,-11.81598 7.5854,-14.0474 9.6877,-14.30387 2.0557,-0.25077 2.7706,0.36076 4.0915,3.5 0.8803,2.09213 2.3569,5.15387 3.2814,6.80387 0.9245,1.65 2.0628,3.7875 2.5296,4.75 1.0974,2.26282 2.9387,5.847 3.9815,7.75 0.452,0.825 2.549,4.875 4.66,9 2.111,4.125 4.3538,8.4 4.9842,9.5 0.6303,1.1 3.565,6.95 6.5217,13 2.9566,6.05 7.5439,15.05 10.1941,20 7.9716,14.88936 20.5072,39.73623 20.5072,40.64734 0,0.46896 -6.2168,0.85266 -13.815,0.85266 h -13.815 l -4.37,-8.5 -4.37,-8.5 h -24.5785 -24.5785 l -3.9988,8.25 -3.9989,8.25 -14.198,0.27721 -14.198,0.27722 z m 68.6195,-44.02675 c -1.9993,-3.9875 -4.783,-9.81515 -6.1861,-12.95034 l -2.5511,-5.70033 -3.6778,7.24416 c -2.0228,3.98428 -3.6878,7.67444 -3.7,8.20033 -0.012,0.5259 -0.9023,2.08118 -1.9778,3.45618 -1.0755,1.375 -1.9655,3.27322 -1.9778,4.21826 -0.02,1.51043 1.3991,1.75658 11.7278,2.03497 6.4625,0.17419 11.8012,0.41347 11.8639,0.53174 0.063,0.11827 -1.5219,-3.04747 -3.5211,-7.03497 z m 59.9072,-10.75 v -58 h 2.1056 c 2.6197,0 8.7884,5.24319 32.3547,27.5 2.3295,2.2 8.2262,7.6 13.1038,12 8.2282,7.42249 21.952,20.05509 25.4359,23.4134 1.3319,1.28385 1.556,-2.13336 2,-30.48373 l 0.5,-31.92967 12.2338,-0.28065 12.2338,-0.28065 0.2662,57.03252 c 0.1464,31.36789 0.1162,57.48168 -0.067,58.03065 -0.1834,0.54897 -1.4278,0.99813 -2.7655,0.99813 -1.6772,0 -5.9197,-3.14586 -13.6667,-10.13403 -16.7401,-15.1003 -28.7911,-26.0566 -31.7501,-28.86597 -1.4483,-1.375 -5.518,-4.975 -9.0438,-8 -3.5259,-3.025 -9.0049,-7.931 -12.1756,-10.90222 l -5.765,-5.40222 v 31.65222 31.65222 h -12.5 -12.5 v -58 z m 121,0 v -58 h 13 13 v 26.09167 26.09167 l 4.2656,-5.34167 c 2.3461,-2.93792 6.7093,-8.60417 9.696,-12.59167 2.9868,-3.9875 5.7923,-7.25 6.2344,-7.25 0.4422,0 0.804,-0.65917 0.804,-1.46482 0,-0.80565 0.9,-1.94648 2,-2.53518 1.1,-0.5887 2,-1.72953 2,-2.53518 0,-0.80565 0.3375,-1.47178 0.75,-1.4803 0.4125,-0.009 3.9,-4.27234 7.75,-9.47517 l 7,-9.45969 15.25,-0.0248 c 10.4304,-0.017 15.25,0.32248 15.25,1.07411 0,0.60442 -2.6661,4.63711 -5.9246,8.96153 -6.2146,8.24736 -6.6616,8.80696 -10.4801,13.12151 -1.3056,1.47509 -4.547,5.52509 -7.2033,9 -2.6563,3.47491 -5.2936,6.8649 -5.8608,7.53332 -0.5672,0.66841 -1.613,1.90758 -2.3241,2.7537 -0.7111,0.84613 -3.564,4.57425 -6.3398,8.28471 -2.7759,3.71046 -5.7128,7.26873 -6.5265,7.90728 -1.5237,1.19557 0.179,3.32837 14.6592,18.36239 17.2879,17.94908 34.9381,37.24127 34.9733,38.22662 0.015,0.4125 -7.6009,0.75 -16.9236,0.75 -13.5385,0 -17.1113,-0.28372 -17.75,-1.40952 -0.79,-1.39244 -3.6729,-4.5538 -23.7924,-26.09048 -5.6519,-6.05 -11.891,-12.8 -13.8647,-15 l -3.5885,-4 -0.027,23.25 -0.027,23.25 h -13 -13 v -58 z m 110.2419,0.25 0.2581,-57.75 42.75,-0.26074 42.75,-0.26073 v 12.01073 12.01074 h -30 -30 v 11.5 11.5 h 26.5 26.5 v 12 12 h -26.5 -26.5 v 11 11 h 30 30 v 11.5 11.5 h -43.0081 -43.0081 z m 103,0 0.2581,-57.75 28,-0.29452 c 29.9897,-0.31544 38.7602,0.6396 44.7095,4.86854 1.4902,1.05929 3.084,1.92598 3.5418,1.92598 1.2807,0 8.6905,8.07626 11.0097,12 3.5853,6.0655 6.2403,15.55267 6.2179,22.21845 -0.022,6.63219 -3.5407,18.53483 -6.419,21.71538 -0.858,0.94801 -1.5599,2.04471 -1.5599,2.43712 0,1.29566 -2.427,3.69017 -8.1173,8.00861 -4.6518,3.53039 -5.4252,4.535 -4.5,5.84555 0.6145,0.87038 1.7923,2.5715 2.6173,3.78027 3.1969,4.68398 8.5354,11.51037 9.25,11.82795 0.4125,0.18334 0.75,0.82059 0.75,1.41612 0,0.59552 0.7034,1.79552 1.5631,2.66666 3.5311,3.57812 10.4166,13.7045 10.4264,15.33389 0.01,1.58637 -1.3399,1.75 -14.4321,1.75 h -14.4425 l -8.8104,-11.75 c -9.3343,-12.44877 -11.8407,-15.95991 -14.383,-20.14903 -1.4913,-2.45736 -2.0849,-2.61685 -10.75,-2.8885 l -9.1715,-0.28752 v 17.53752 17.53753 h -13.0081 -13.0081 z m 58.461,-2.47045 c 4.359,-1.90196 6.9665,-5.21057 8.3448,-10.58862 1.1158,-4.35371 1.0395,-5.63283 -0.6405,-10.74047 -3.0709,-9.33609 -4.362,-9.88896 -23.9768,-10.26776 l -16.4304,-0.3173 v 16.5673 16.5673 h 14.9529 c 9.5748,0 15.959,-0.43897 17.75,-1.22045 z M 731.82666,577.82621 c -0.19103,-0.57229 -0.22851,-30.67295 -0.0833,-66.89036 l 0.26402,-65.84983 11.67758,-0.66696 c 13.1164,-0.74913 24.73233,-3.09428 40.5203,-8.18068 5.89927,-1.90056 10.96177,-3.45557 11.25001,-3.45557 0.28824,0 0.52407,19.58788 0.52407,43.52863 v 43.52862 l 63.25,-0.27862 c 62.94217,-0.27727 63.2719,-0.28938 67.75,-2.48744 16.4103,-8.05494 26.20722,-19.72482 30.5149,-36.34868 3.35735,-12.95644 1.21533,-26.44752 -6.38117,-40.19049 -6.42901,-11.63085 -14.67795,-18.33297 -26.84749,-21.81315 -6.23321,-1.78254 -10.22708,-1.93887 -49.53306,-1.93887 -47.58309,0 -47.21836,0.0602 -37.85629,-6.24462 7.17729,-4.83347 12.17924,-9.1653 22.43578,-19.43 9.78744,-9.79523 11.59353,-11.77733 13.16733,-14.45062 0.55,-0.93423 2.35,-3.65074 4,-6.03669 1.65,-2.38594 3.60945,-5.52122 4.35434,-6.96728 1.35149,-2.6237 1.38504,-2.63015 16,-3.0724 13.59835,-0.4115 15.03896,-0.64312 20.14566,-3.23894 5.37746,-2.73346 14.13295,-9.15436 14.87118,-10.90588 0.20415,-0.48436 1.21665,-1.60458 2.25,-2.48936 1.03335,-0.88478 1.87882,-2.00172 1.87882,-2.48208 0,-0.48036 0.81832,-2.06786 1.81849,-3.52776 5.77969,-8.43637 8.32674,-23.08337 6.39167,-36.75573 -2.35379,-16.63087 -14.54397,-32.70042 -28.62639,-37.73637 -2.04392,-0.73092 -22.72591,-1.28141 -61.33422,-1.63252 l -58.25045,-0.52975 4.5e-4,41.75 c 2.5e-4,22.9625 0.22545,41.75 0.50045,41.75 0.59879,0 10.96677,-10.42994 14.5,-14.58665 7.47286,-8.79153 9.31678,-11.69688 15.65296,-24.66335 2.71243,-5.55076 5.37886,-9.75 6.19106,-9.75 0.78465,0 2.40244,1.0125 3.59509,2.25 1.19264,1.2375 3.71925,3.57973 5.61467,5.20495 1.89542,1.62523 6.82645,6.12523 10.95783,10 4.13139,3.87478 11.24884,10.41487 15.81655,14.53354 8.04498,7.25408 8.28434,7.5984 7.64672,11 -1.21083,6.45957 -16.93712,33.01151 -19.5522,33.01151 -0.50747,0 -0.92268,0.45589 -0.92268,1.01308 0,1.71085 -9.07504,10.86686 -17.5,17.65615 -4.4,3.54576 -8.79264,7.09572 -9.76143,7.8888 -0.96879,0.79308 -1.94947,1.44197 -2.17929,1.44197 -0.22982,0 -3.03717,1.73115 -6.23857,3.847 -7.31114,4.83206 -24.62519,13.28365 -33.82071,16.50907 -9.78793,3.43322 -25.92216,7.1708 -39.64579,9.18418 -12.94548,1.89921 -37.45829,1.64167 -48.35421,-0.50802 -15.51126,-3.06027 -28.60344,-6.9822 -37,-11.08383 -2.2,-1.07467 -4.34432,-1.95271 -4.76515,-1.95118 -0.74231,0.003 -9.5554,-4.95841 -14.20657,-7.99722 -1.26273,-0.825 -4.14817,-2.59536 -6.41208,-3.93414 -2.26391,-1.33878 -4.1162,-2.80128 -4.1162,-3.25 0,-0.44872 -0.48418,-0.81586 -1.07596,-0.81586 -1.91435,0 -12.90259,-9.04819 -22.94685,-18.89542 -9.46151,-9.27592 -19.81547,-21.92084 -27.72898,-33.8644 -3.37021,-5.08654 -13.18949,-24.33844 -17.54444,-34.39806 -4.33215,-10.00692 -9.60833,-28.51998 -12.35242,-43.34212 -2.59808,-14.03345 -2.62232,-49.99235 -0.0425,-63 8.87699,-44.75796 25.72172,-77.70604 54.32038,-106.25 4.5462,-4.537503 8.72359,-8.250003 9.2831,-8.250003 0.5595,0 1.49895,-0.9 2.08765,-2 0.5887,-1.1 1.72953,-2 2.53518,-2 0.80567,0 1.46484,-0.39013 1.46484,-0.86694 0,-0.78979 11.69945,-9.10522 16.49838,-11.7263 1.10089,-0.60129 3.62747,-2.02147 5.61461,-3.15597 6.32468,-3.61087 7.25605,-4.08888 14.00592,-7.18842 8.87017,-4.07319 22.10904,-8.32067 34.88109,-11.19106 9.65693,-2.170297 12.62776,-2.353771 37,-2.285072 25.29577,0.0713 27.02259,0.199366 38,2.818142 6.325,1.50889 14.2,3.64762 17.5,4.75273 7.23331,2.42231 24.59385,10.73874 29.81868,14.2844 2.07357,1.40717 3.99437,2.55849 4.26843,2.55849 0.88257,0 11.78995,8.22795 15.80246,11.92055 9.66215,8.89178 16.41686,16.161243 20.11043,21.642953 2.2,3.26508 4.23539,6.1615 4.5231,6.4365 2.35152,2.24768 13.9769,23.73256 13.9769,25.83072 0,0.43937 -1.4625,1.57566 -3.25,2.52508 -4.82866,2.56473 -6.22933,3.44169 -18.99747,11.8942 -6.43881,4.2625 -12.12969,7.75 -12.6464,7.75 -0.5167,0 -1.08946,0.35589 -1.2728,0.79087 -0.42902,1.01789 -9.67063,7.20913 -10.76102,7.20913 -0.45508,0 -1.38762,0.675 -2.07231,1.5 -1.90429,2.29453 -2.53558,1.88572 -5.01874,-3.25 -4.4324,-9.16716 -5.58438,-11.27656 -9.37776,-17.1716 -3.01093,-4.67909 -3.32806,-5.09926 -6.9071,-9.15125 -1.2499,-1.41506 -3.15541,-3.66506 -4.23447,-5 -5.80749,-7.1846 -18.44494,-15.3824 -31.96193,-20.73344 -14.71553,-5.82551 -19.83086,-6.65176 -41,-6.62246 -18.01473,0.0249 -20.61727,0.24611 -26.21845,2.22821 -3.42015,1.2103 -6.6732,2.20054 -7.22899,2.20054 -1.61779,0 -18.13667,8.3082 -22.95215,11.54382 -2.41978,1.6259 -5.11939,3.40618 -5.99915,3.95618 -4.12457,2.57857 -21.223,20.95913 -25.41175,27.31726 -2.57923,3.91502 -4.68951,7.40077 -4.68951,7.74611 0,0.34534 -0.80955,1.82236 -1.79901,3.28226 -2.59103,3.82297 -9.60998,22.30036 -12.02445,31.65437 -6.71403,26.01117 -6.73338,54.09673 -0.0525,76.2091 1.03178,3.415 1.87597,6.66323 1.87597,7.21829 0,1.12067 7.49543,19.42309 9.24421,22.57261 0.61078,1.1 1.59319,2.90073 2.18315,4.00162 2.30909,4.30889 11.00593,16.68052 13.95849,19.85655 1.71278,1.84241 4.27172,4.65304 5.68652,6.24584 1.41481,1.59279 4.49248,4.47099 6.83928,6.39599 2.3468,1.925 4.78923,3.97678 5.42763,4.5595 2.36283,2.15679 16.30704,11.01135 20.66072,13.11955 12.06455,5.84206 25.12487,8.97677 38.52665,9.24708 l 9.49566,0.19153 -0.0339,-83.30883 -0.0339,-83.30883 100.7727,-0.27061 100.77271,-0.27062 8.29577,2.62415 c 9.53768,3.01698 18.09299,7.22814 24.70052,12.15826 6.678,4.9827 7.78,5.88077 10.82871,8.82484 4.87962,4.71211 12.26357,13.77823 15.40814,18.91831 2.4567,4.0157 9.06429,18.0984 10.09519,21.51567 5.1435,17.05003 5.4639,19.17425 5.4417,36.07354 -0.023,17.41352 -0.7542,21.70728 -6.5457,38.42646 -2.17664,6.28387 -7.57678,16.76168 -8.93332,17.33333 -0.43506,0.18334 -0.79101,0.78121 -0.79101,1.32861 0,1.63134 -11.64296,15.37726 -16.6494,19.65664 l -4.64504,3.97046 4.39722,2.75494 c 2.41847,1.51522 4.54722,3.13768 4.73055,3.60548 0.18334,0.4678 0.76984,0.85054 1.30335,0.85054 2.37265,0 15.6225,12.11133 20.83985,19.04916 15.4797,20.58423 22.0234,40.1099 22.0234,65.71515 0,11.67861 -0.4126,15.60476 -2.4735,23.53671 -2.7777,10.69078 -4.2552,14.51385 -8.966,23.19898 -13.39537,24.69692 -37.82317,43.0478 -67.06043,50.37782 -18.2559,4.5769 -16.7135,4.51282 -117.15268,4.86702 -65.99965,0.23275 -96.2616,0.0128 -96.5,-0.70144 z M 901.97934,173.8316 c 0,-1.13676 2.47003,-10.75695 4.37736,-17.04879 0.75028,-2.475 2.38025,-8.1 3.62216,-12.5 2.74742,-9.73389 5.00507,-17.5188 8.04552,-27.74285 1.26643,-4.25857 2.11188,-7.89455 1.87878,-8.07997 -0.2331,-0.18542 -4.05556,-3.22613 -8.49436,-6.75715 -4.4388,-3.531023 -9.3045,-7.320033 -10.81266,-8.420033 -1.50817,-1.1 -4.17643,-3.27765 -5.92946,-4.83922 -1.75304,-1.56158 -5.77484,-4.66428 -8.93734,-6.8949 -3.1625,-2.23061 -5.75,-4.44046 -5.75,-4.91077 0,-0.47031 -0.50005,-0.85511 -1.11122,-0.85511 -1.66908,0 -10.88878,-7.99714 -10.88878,-9.4449 0,-1.57456 10.84878,-2.49469 31.5,-2.67164 8.25,-0.0707 19.65618,-0.41089 25.34706,-0.756 l 10.34707,-0.62746 1.49591,-4 c 0.82275,-2.2 2.32589,-6.25 3.34029,-9 1.01441,-2.75 3.02541,-8.15 4.46888,-12 1.44347,-3.85 3.00082,-8.35 3.46078,-10 0.45996,-1.65 2.05806,-6.15 3.55134,-10 1.49327,-3.85 3.49711,-9.2500002 4.45296,-12.0000002 0.95586,-2.75 2.36875,-5.124086 3.13976,-5.275746 1.2755,-0.250894 4.89595,6.251717 4.89595,8.793504 0,0.552221 0.85502,2.9116352 1.90005,5.2431402 1.04503,2.331506 2.36239,5.589102 2.92748,7.239102 0.56508,1.65 1.98933,5.475 3.165,8.5 1.17567,3.025 3.64034,10.007117 5.47703,15.515816 5.12565,15.373064 6.32241,17.477174 9.96565,17.521324 17.47485,0.21177 63.87405,1.93882 64.32965,2.39445 0.6627,0.66271 -4.6888,6.56841 -5.952,6.56841 -0.4471,0 -1.6707,0.7875 -2.7192,1.75 -1.0485,0.9625 -11.3721,9.175 -22.9414,18.25 -13.3722,10.489213 -20.91498,17.046443 -20.70556,18.000003 0.83096,3.78378 4.88266,19.1359 6.59796,25 1.0457,3.575 2.8734,9.875 4.0615,14 1.1881,4.125 2.9688,10.2 3.9571,13.5 2.3306,7.7824 3.2573,12.5 2.4553,12.5 -0.3522,0 -5.1857,-3.0375 -10.7412,-6.75 -5.5554,-3.7125 -10.81549,-7.20919 -11.68906,-7.77043 -0.87356,-0.56124 -3.56812,-2.36124 -5.98789,-4 -2.41978,-1.63876 -5.08182,-3.42957 -5.91565,-3.97957 -0.83383,-0.55 -6.32642,-4.19991 -12.20577,-8.1109 l -10.68971,-7.1109 -4.63125,3.3609 c -2.54719,1.84849 -5.04978,3.3609 -5.56131,3.3609 -0.51153,0 -1.08005,0.35589 -1.26339,0.79087 -0.32695,0.77572 -9.54839,7.20913 -10.33333,7.20913 -0.21985,0 -2.4956,1.4625 -5.05722,3.25 -2.56162,1.7875 -5.68587,3.925 -6.94278,4.75 -1.25691,0.825 -4.38116,2.9625 -6.94278,4.75 -2.56162,1.7875 -4.85888,3.25 -5.10504,3.25 -0.24615,0 -2.63984,1.575 -5.3193,3.5 -5.12714,3.68349 -6.13288,4.10147 -6.13288,2.54879 z"
       id="path200"
       inkscape:export-filename="path20033333.svg"
       inkscape:export-xdpi="96"
       inkscape:export-ydpi="96" />
  </g>
</svg>
