<?xml version="1.0" encoding="UTF-8" standalone="no"?>
<!-- Created with Inkscape (http://www.inkscape.org/) -->

<svg
   width="23.279804mm"
   height="26.820986mm"
   viewBox="0 0 23.279804 26.820985"
   version="1.1"
   id="svg133908"
   xml:space="preserve"
   xmlns:inkscape="http://www.inkscape.org/namespaces/inkscape"
   xmlns:sodipodi="http://sodipodi.sourceforge.net/DTD/sodipodi-0.dtd"
   xmlns="http://www.w3.org/2000/svg"
   xmlns:svg="http://www.w3.org/2000/svg"><sodipodi:namedview
     id="namedview133910"
     pagecolor="#ffffff"
     bordercolor="#111111"
     borderopacity="1"
     inkscape:showpageshadow="0"
     inkscape:pageopacity="0"
     inkscape:pagecheckerboard="1"
     inkscape:deskcolor="#d1d1d1"
     inkscape:document-units="mm"
     showgrid="false" /><defs
     id="defs133905" /><g
     inkscape:label="Layer 1"
     inkscape:groupmode="layer"
     id="layer1"
     transform="translate(-62.201726,-80.16053)"><path
       style="fill:white;stroke-width:0.264583"
       d="m 70.79026,106.80595 c -0.09701,-0.097 -0.176389,-1.45637 -0.176389,-3.02079 v -2.84439 l 1.335939,-0.28651 c 0.734768,-0.15758 1.389608,-0.28651 1.455208,-0.28651 0.0656,0 0.11927,0.89297 0.11927,1.98438 v 1.98437 h 3.06306 c 3.03271,0 3.07073,-0.008 3.83646,-0.77339 1.06741,-1.06742 1.06741,-2.41288 0,-3.4803 -0.72141,-0.72141 -0.91088,-0.773396 -2.81871,-0.773396 h -2.04532 l 0.96663,-0.938778 c 0.53165,-0.516328 0.96663,-1.052109 0.96663,-1.190625 0,-0.138516 0.35055,-0.251847 0.779,-0.251847 0.44026,0 1.09918,-0.275411 1.51534,-0.633377 1.04943,-0.902682 1.04943,-2.593063 0,-3.495745 -0.67509,-0.580684 -0.96625,-0.633378 -3.49972,-0.633378 h -2.76337 l 0.008,2.050521 0.008,2.050521 0.75304,-0.827193 c 0.41418,-0.454956 0.80523,-0.983742 0.86901,-1.17508 0.16209,-0.486265 2.06659,1.059615 2.0666,1.677455 1e-5,0.771164 -2.03076,2.734673 -3.5118,3.395483 -1.93084,0.861499 -4.879444,0.870869 -6.488139,0.0206 -2.756654,-1.457016 -4.658882,-4.281632 -4.985057,-7.402309 -0.361176,-3.455552 1.627527,-7.08972 4.724073,-8.632793 1.121153,-0.558694 1.744327,-0.682199 3.44221,-0.682199 2.852703,0 4.777873,0.910309 6.089373,2.879335 0.64772,0.97245 0.5876,1.234922 -0.42636,1.861586 -1.16014,0.717002 -1.28789,0.69997 -1.84682,-0.246231 -0.64726,-1.095727 -2.227466,-1.848857 -3.879239,-1.848857 -1.52064,0 -2.457646,0.404094 -3.472925,1.497733 -3.279578,3.532701 -1.63547,9.557637 2.873026,10.528387 l 0.852712,0.183602 0.07333,-3.922049 0.07333,-3.922048 4.312776,-0.07276 c 5.0003,-0.08436 6.03946,0.118192 7.1613,1.395897 1.57852,1.797837 1.64691,4.679418 0.14938,6.294433 l -0.64953,0.700492 0.61455,0.402669 c 1.56695,1.026704 2.29592,4.184941 1.37639,5.963121 -0.51897,1.00356 -1.85396,1.9934 -3.17528,2.35433 -1.13601,0.3103 -9.452143,0.40899 -9.745488,0.11565 z m 8.025698,-19.173651 c 0,-0.165018 0.14244,-0.775464 0.31654,-1.356548 l 0.31654,-1.056516 -1.17644,-1.016806 -1.17643,-1.016806 1.50352,-0.0079 c 1.3053,-0.0069 1.52747,-0.08334 1.68516,-0.580162 0.0999,-0.314746 0.35693,-0.991838 0.5712,-1.504649 l 0.38957,-0.932382 0.57227,1.438503 0.57227,1.438502 1.54569,0.08011 1.54568,0.08011 -1.21612,0.947472 c -0.66886,0.521109 -1.21483,1.020841 -1.21326,1.110514 0.002,0.08967 0.17448,0.72859 0.38422,1.419814 0.20975,0.691224 0.29563,1.256771 0.19085,1.256771 -0.10478,0 -0.62855,-0.297657 -1.16393,-0.661459 -0.53538,-0.363802 -1.11733,-0.661458 -1.29322,-0.661458 -0.17588,0 -0.71004,0.297656 -1.18701,0.661458 -0.96685,0.737452 -1.1671,0.799467 -1.1671,0.361426 z"
       id="path133924"
       inkscape:export-filename="path133924.svg"
       inkscape:export-xdpi="217.12383"
       inkscape:export-ydpi="217.12383" /></g></svg>



