<svg xmlns="http://www.w3.org/2000/svg" xmlns:xlink="http://www.w3.org/1999/xlink" width="307px" height="55px" viewBox="0 0 307 55" version="1.1">
    <title>logo 2</title>
    <g id="Page-1" stroke="none" stroke-width="1" fill="none" fill-rule="evenodd">
        <g id="logo-2" fill="#3f3734" fill-rule="nonzero">
            <g id="logo">
                <polygon id="Path" points="8.52 35.09 8.52 24.84 22.5 24.84 22.5 17.39 8.52 17.39 8.52 7.43 25.85 7.43 25.85 0 0 0 0 42.52 26.76 42.52 26.76 35.09"/>
                <path d="M50.16,0 L50.16,14.02 C49.81,13.66 49.42,13.33 48.98,13.02 C48.28,12.52 47.35,12.06 46.22,11.65 C45.08,11.23 43.64,11.02 41.96,11.02 C39.92,11.02 38.02,11.41 36.31,12.18 C34.6,12.95 33.1,14.05 31.87,15.44 C30.64,16.83 29.68,18.55 28.99,20.53 C28.31,22.51 27.96,24.73 27.96,27.13 C27.96,29.47 28.28,31.65 28.91,33.61 C29.54,35.57 30.47,37.29 31.66,38.71 C32.85,40.14 34.31,41.26 36,42.05 C37.69,42.84 39.59,43.24 41.67,43.24 C43.42,43.24 44.94,42.96 46.19,42.41 C47.42,41.87 48.44,41.25 49.21,40.58 C49.71,40.15 50.16,39.68 50.55,39.18 C50.55,39.32 50.55,39.46 50.55,39.6 L50.55,42.53 L58.52,42.53 L58.52,0 L50.16,0 Z M50.39,27.07 C50.39,28.67 50.19,30.05 49.79,31.17 C49.39,32.29 48.86,33.22 48.21,33.93 C47.56,34.64 46.82,35.17 45.99,35.5 C44.21,36.22 42.12,36.16 40.55,35.4 C39.71,34.99 38.98,34.4 38.37,33.64 C37.75,32.87 37.26,31.93 36.92,30.83 C36.57,29.73 36.4,28.48 36.4,27.12 C36.4,25.69 36.59,24.42 36.97,23.33 C37.35,22.25 37.86,21.32 38.5,20.58 C39.13,19.85 39.87,19.28 40.71,18.9 C41.55,18.52 42.46,18.33 43.42,18.33 C44.57,18.33 45.59,18.57 46.45,19.06 C47.32,19.55 48.05,20.2 48.63,21 C49.21,21.81 49.66,22.75 49.95,23.8 C50.24,24.85 50.39,25.95 50.39,27.07 Z" id="Shape"/>
                <g id="Group" transform="translate(63.000000, 0.000000)">
                    <rect id="Rectangle" x="0.26" y="11.73" width="8.37" height="30.79"/>
                    <rect id="Rectangle" x="0.26" y="0" width="8.31" height="7.54"/>
                </g>
                <path d="M104.72,17.6 C104.24,16.11 103.53,14.86 102.6,13.87 C101.67,12.89 100.51,12.15 99.17,11.69 C97.85,11.24 96.32,11.01 94.61,11.01 C93.06,11.01 91.66,11.23 90.44,11.65 C89.23,12.07 88.16,12.61 87.26,13.26 C86.36,13.9 85.6,14.61 84.99,15.36 C84.8,15.6 84.63,15.83 84.46,16.05 C84.46,15.91 84.46,15.77 84.46,15.62 L84.46,11.72 L76.37,11.72 L76.37,42.51 L84.74,42.51 L84.74,28.35 C84.74,27.66 84.78,26.99 84.85,26.34 C84.92,25.71 85.06,25.1 85.26,24.51 C85.53,23.66 85.91,22.87 86.38,22.17 C86.85,21.47 87.41,20.86 88.04,20.34 C88.67,19.83 89.4,19.44 90.2,19.16 C91.01,18.88 91.89,18.74 92.82,18.74 C93.7,18.74 94.42,18.87 94.98,19.14 C95.53,19.4 95.94,19.75 96.25,20.22 C96.57,20.7 96.79,21.28 96.91,21.96 C97.04,22.67 97.1,23.48 97.1,24.37 L97.1,42.51 L105.41,42.51 L105.41,22.83 C105.43,20.83 105.19,19.07 104.72,17.6 Z" id="Path"/>
                <path d="M133.38,18.16 C132.8,16.62 131.94,15.31 130.84,14.24 C129.74,13.18 128.36,12.36 126.76,11.82 C125.17,11.28 123.35,11.01 121.35,11.01 C119.53,11.01 117.86,11.21 116.41,11.61 C114.97,12.01 113.72,12.44 112.67,12.91 C111.46,13.45 110.36,14.09 109.39,14.79 L109.06,15.03 L112.3,21.18 L112.74,20.87 C113.48,20.35 114.29,19.89 115.16,19.48 C115.9,19.13 116.76,18.81 117.71,18.52 C119.35,18.03 121.3,17.96 122.85,18.35 C123.49,18.51 124.05,18.78 124.51,19.15 C124.96,19.51 125.32,20 125.57,20.6 C125.83,21.21 125.96,21.96 125.96,22.85 L125.43,22.85 C124.6,22.85 123.6,22.88 122.4,22.94 C121.2,23 119.92,23.14 118.6,23.38 C117.27,23.61 115.92,23.95 114.6,24.38 C113.25,24.82 112.03,25.44 110.95,26.22 C109.86,27.01 108.97,28 108.29,29.17 C107.6,30.35 107.25,31.79 107.25,33.45 C107.25,35 107.54,36.41 108.12,37.63 C108.7,38.85 109.49,39.89 110.47,40.72 C111.44,41.55 112.59,42.18 113.87,42.61 C115.14,43.03 116.49,43.25 117.86,43.25 C119.02,43.25 120.09,43.11 121.02,42.85 C121.95,42.58 122.78,42.23 123.48,41.81 C124.17,41.39 124.78,40.95 125.28,40.48 C125.76,40.03 126.16,39.59 126.47,39.18 C126.47,39.32 126.47,39.46 126.47,39.61 L126.47,42.54 L134.27,42.54 L134.27,23.38 C134.26,21.44 133.96,19.69 133.38,18.16 Z M115.67,33.1 C115.67,32.49 115.8,31.97 116.07,31.55 C116.35,31.11 116.73,30.73 117.19,30.41 C117.67,30.08 118.24,29.82 118.88,29.63 C119.54,29.43 120.24,29.27 120.96,29.16 C121.68,29.05 122.41,28.97 123.13,28.94 C123.86,28.9 124.54,28.88 125.18,28.88 L126,28.88 L126,29.1 C126,29.96 125.84,30.83 125.53,31.7 C125.21,32.57 124.77,33.38 124.2,34.1 C123.64,34.81 122.96,35.4 122.19,35.84 C121.44,36.27 120.61,36.49 119.72,36.49 C119.02,36.49 118.41,36.39 117.9,36.19 C117.4,35.99 116.98,35.74 116.65,35.43 C116.33,35.12 116.08,34.77 115.92,34.36 C115.75,33.96 115.67,33.53 115.67,33.1 Z" id="Shape"/>
                <path d="M168.96,26.29 C168.75,25.93 168.56,25.61 168.4,25.34 C168.22,25.04 168.06,24.81 167.92,24.66 C167.9,24.64 167.88,24.61 167.86,24.59 C168.8,24.16 169.66,23.6 170.43,22.92 C171.33,22.11 172.1,21.18 172.72,20.15 C173.34,19.12 173.82,17.98 174.16,16.76 C174.49,15.54 174.66,14.28 174.66,13 C174.66,10.16 174.02,7.7 172.76,5.7 C171.5,3.69 169.75,2.19 167.58,1.22 C167.1,1 166.59,0.82 166.07,0.67 C165.55,0.52 164.95,0.4 164.28,0.3 C163.62,0.2 162.85,0.13 161.99,0.08 C161.13,0.02 160.12,0 159,0 L145.12,0 L145.12,42.52 L153.64,42.52 L153.64,26.99 L160.13,26.99 L168.4,42.52 L177.91,42.52 L168.96,26.29 Z M153.64,7.43 L158.89,7.43 C160.32,7.43 161.52,7.57 162.44,7.85 C163.34,8.12 164.05,8.52 164.58,9.03 C165.1,9.53 165.47,10.15 165.69,10.87 C165.92,11.62 166.03,12.48 166.03,13.42 C166.03,15.36 165.49,16.87 164.41,17.92 C163.33,18.97 161.83,19.5 159.95,19.5 L153.64,19.5 L153.64,7.43 Z" id="Shape"/>
                <path d="M203.98,19.95 C203.39,18.17 202.51,16.61 201.36,15.29 C200.21,13.97 198.76,12.91 197.05,12.15 C195.35,11.39 193.36,11.01 191.15,11.01 C188.87,11.01 186.75,11.41 184.85,12.19 C182.95,12.97 181.29,14.09 179.9,15.51 C178.52,16.93 177.43,18.65 176.67,20.61 C175.91,22.57 175.52,24.76 175.52,27.11 C175.52,29.28 175.91,31.36 176.67,33.3 C177.43,35.25 178.54,36.98 179.96,38.45 C181.38,39.92 183.13,41.1 185.16,41.95 C187.19,42.8 189.5,43.23 192.03,43.23 C193.93,43.23 195.66,43 197.17,42.55 C198.66,42.1 199.96,41.59 201.03,41.03 C202.25,40.39 203.37,39.65 204.34,38.83 L204.63,38.58 L201.29,32.43 L200.85,32.78 C200.11,33.37 199.29,33.9 198.4,34.36 C197.65,34.76 196.75,35.13 195.75,35.46 C193.86,36.07 191.52,36.12 189.47,35.46 C188.5,35.15 187.62,34.67 186.86,34.05 C186.1,33.43 185.46,32.65 184.96,31.72 C184.53,30.92 184.24,30 184.1,28.98 L204.64,28.98 L204.66,28.53 C204.68,28.14 204.71,27.78 204.75,27.42 L204.81,26.47 C204.83,26.14 204.84,25.86 204.84,25.64 C204.86,23.64 204.56,21.72 203.98,19.95 Z M190.98,17.7 C191.74,17.7 192.45,17.82 193.1,18.07 C193.74,18.31 194.31,18.68 194.8,19.15 C195.28,19.63 195.67,20.23 195.95,20.93 C196.18,21.52 196.34,22.21 196.4,22.96 L184.41,22.96 C184.79,21.39 185.51,20.13 186.56,19.22 C187.71,18.21 189.2,17.7 190.98,17.7 Z" id="Shape"/>
                <path d="M233,18.16 C232.42,16.62 231.56,15.31 230.46,14.24 C229.36,13.18 227.99,12.36 226.38,11.82 C224.79,11.28 222.97,11.01 220.97,11.01 C219.14,11.01 217.48,11.21 216.03,11.61 C214.59,12.01 213.33,12.44 212.29,12.91 C211.08,13.45 209.98,14.09 209.01,14.79 L208.68,15.03 L211.92,21.18 L212.36,20.87 C213.1,20.35 213.91,19.89 214.78,19.48 C215.52,19.13 216.38,18.81 217.33,18.52 C218.96,18.03 220.92,17.96 222.47,18.35 C223.11,18.51 223.67,18.78 224.12,19.15 C224.57,19.51 224.93,20 225.18,20.6 C225.44,21.21 225.57,21.96 225.57,22.85 L225.04,22.85 C224.21,22.85 223.2,22.88 222.02,22.94 C220.82,23 219.54,23.14 218.21,23.38 C216.88,23.61 215.53,23.95 214.21,24.38 C212.86,24.82 211.64,25.44 210.56,26.22 C209.47,27.01 208.58,28 207.9,29.17 C207.21,30.35 206.86,31.79 206.86,33.45 C206.86,35 207.15,36.41 207.74,37.63 C208.32,38.85 209.11,39.89 210.09,40.72 C211.07,41.55 212.21,42.18 213.49,42.61 C214.76,43.03 216.11,43.25 217.48,43.25 C218.64,43.25 219.71,43.11 220.64,42.85 C221.57,42.58 222.4,42.23 223.1,41.81 C223.79,41.39 224.4,40.95 224.9,40.48 C225.38,40.03 225.78,39.59 226.09,39.18 C226.09,39.32 226.09,39.46 226.09,39.61 L226.09,42.54 L233.89,42.54 L233.89,23.38 C233.87,21.44 233.58,19.69 233,18.16 Z M215.28,33.1 C215.28,32.49 215.41,31.97 215.68,31.55 C215.96,31.11 216.34,30.73 216.81,30.41 C217.29,30.09 217.86,29.82 218.5,29.63 C219.16,29.43 219.86,29.27 220.58,29.16 C221.3,29.05 222.03,28.97 222.75,28.94 C223.48,28.9 224.16,28.88 224.8,28.88 L225.62,28.88 L225.62,29.1 C225.62,29.96 225.46,30.83 225.15,31.7 C224.83,32.57 224.39,33.38 223.82,34.1 C223.26,34.81 222.58,35.4 221.81,35.84 C221.06,36.27 220.23,36.49 219.34,36.49 C218.64,36.49 218.03,36.39 217.52,36.19 C217.02,35.99 216.6,35.74 216.27,35.43 C215.95,35.12 215.7,34.77 215.54,34.36 C215.37,33.96 215.28,33.53 215.28,33.1 Z" id="Shape"/>
                <rect id="Rectangle" x="237.74" y="0" width="8.32" height="42.52"/>
                <path d="M268.18,35.27 C268.08,35.29 267.96,35.3 267.81,35.31 C267.28,35.34 266.48,35.31 265.58,35.15 C264.97,35.04 264.38,34.8 263.82,34.43 C263.27,34.07 262.81,33.55 262.42,32.89 C262.04,32.23 261.85,31.31 261.85,30.16 L261.85,18.58 L268.63,18.58 L268.63,11.72 L261.85,11.72 L261.85,3.57 L253.65,3.57 L253.65,11.72 L249.59,11.72 L249.59,18.58 L253.45,18.58 L253.45,31.1 C253.45,32.81 253.67,34.31 254.11,35.56 C254.55,36.82 255.13,37.9 255.85,38.77 C256.57,39.64 257.41,40.35 258.34,40.88 C259.26,41.4 260.2,41.81 261.15,42.09 C262.09,42.37 263.03,42.57 263.94,42.66 C264.83,42.76 265.65,42.81 266.36,42.81 C267.09,42.81 267.66,42.78 268.06,42.72 C268.31,42.7 268.53,42.67 268.72,42.62 L269.09,42.54 L269.09,35.12 L268.18,35.27 Z" id="Path"/>
                <path d="M293.48,11.73 L287.51,29.38 C287.37,29.79 287.25,30.23 287.13,30.7 L286.9,31.6 C286.82,31.28 286.73,30.94 286.63,30.59 C286.49,30.11 286.35,29.66 286.19,29.26 L279.79,11.74 L270.4,11.74 L283.18,41.61 L282.14,44.06 C281.62,45.29 280.94,46.2 280.09,46.77 C279.24,47.35 278.36,47.63 277.42,47.63 C277.03,47.63 276.66,47.57 276.32,47.47 C275.95,47.35 275.61,47.22 275.32,47.09 C274.98,46.91 274.65,46.71 274.34,46.49 L273.87,46.16 L271.02,52.59 L271.34,52.81 C271.89,53.19 272.51,53.53 273.18,53.82 C273.75,54.08 274.43,54.31 275.19,54.52 C275.97,54.73 276.85,54.84 277.8,54.84 C278.96,54.84 280.11,54.68 281.22,54.36 C282.33,54.04 283.39,53.55 284.36,52.9 C285.33,52.25 286.22,51.4 287.01,50.38 C287.79,49.37 288.47,48.15 289.02,46.76 L302.62,11.75 L293.48,11.75 L293.48,11.73 Z" id="Path"/>
                <path d="M298.24,38.13 C298.24,37.73 298.29,37.35 298.39,36.99 C298.49,36.62 298.63,36.28 298.81,35.97 C298.99,35.65 299.2,35.37 299.45,35.11 C299.7,34.85 299.98,34.63 300.29,34.45 C300.6,34.27 300.93,34.12 301.28,34.02 C301.63,33.92 302,33.87 302.39,33.87 C302.97,33.87 303.52,33.98 304.03,34.2 C304.54,34.42 304.98,34.72 305.36,35.11 C305.74,35.5 306.03,35.95 306.25,36.47 C306.47,36.99 306.58,37.54 306.58,38.14 C306.58,38.54 306.53,38.92 306.43,39.28 C306.33,39.65 306.19,39.99 306.01,40.3 C305.83,40.62 305.61,40.9 305.36,41.16 C305.1,41.42 304.82,41.64 304.51,41.83 C304.2,42.01 303.87,42.16 303.51,42.26 C303.15,42.36 302.78,42.41 302.39,42.41 C302.01,42.41 301.64,42.36 301.28,42.26 C300.93,42.16 300.59,42.02 300.29,41.83 C299.98,41.65 299.7,41.42 299.45,41.16 C299.2,40.9 298.98,40.61 298.81,40.3 C298.63,39.98 298.49,39.64 298.39,39.28 C298.29,38.91 298.24,38.53 298.24,38.13 Z M299.09,38.13 C299.09,38.62 299.17,39.07 299.34,39.49 C299.51,39.91 299.74,40.28 300.04,40.59 C300.34,40.9 300.69,41.15 301.09,41.33 C301.49,41.51 301.92,41.6 302.39,41.6 C302.86,41.6 303.29,41.51 303.7,41.33 C304.11,41.15 304.46,40.91 304.76,40.59 C305.06,40.28 305.29,39.91 305.46,39.49 C305.63,39.07 305.72,38.61 305.72,38.13 C305.72,37.65 305.63,37.19 305.46,36.77 C305.29,36.35 305.05,35.98 304.76,35.67 C304.46,35.36 304.11,35.11 303.7,34.93 C303.29,34.75 302.86,34.66 302.39,34.66 C301.93,34.66 301.49,34.75 301.09,34.93 C300.69,35.11 300.34,35.35 300.04,35.67 C299.74,35.98 299.51,36.35 299.34,36.77 C299.18,37.19 299.09,37.64 299.09,38.13 Z M300.97,35.91 L302.67,35.91 C302.88,35.91 303.06,35.94 303.24,36 C303.41,36.06 303.56,36.15 303.68,36.27 C303.8,36.39 303.9,36.53 303.96,36.69 C304.03,36.85 304.06,37.04 304.06,37.24 C304.06,37.41 304.04,37.56 303.99,37.7 C303.94,37.83 303.88,37.95 303.8,38.05 C303.72,38.15 303.64,38.23 303.54,38.29 C303.44,38.35 303.35,38.39 303.26,38.42 L303.26,38.44 L303.29,38.49 C303.3,38.51 303.32,38.53 303.34,38.56 C303.36,38.59 303.38,38.63 303.41,38.68 L304.25,40.31 L303.34,40.31 L302.52,38.6 L301.81,38.6 L301.81,40.31 L300.98,40.31 L300.98,35.91 L300.97,35.91 Z M302.5,38 C302.72,38 302.89,37.93 303.02,37.8 C303.15,37.67 303.21,37.48 303.21,37.25 C303.21,37.02 303.15,36.85 303.02,36.72 C302.89,36.6 302.72,36.54 302.5,36.54 L301.8,36.54 L301.8,38 L302.5,38 Z" id="Shape"/>
            </g>
        </g>
    </g>
</svg>